<?xml version="1.0" encoding="UTF-8" standalone="no"?>
<svg
   height="16px"
   viewBox="0 0 16 16"
   width="16px"
   version="1.1"
   id="svg1"
   sodipodi:docname="audio-volume-low-symbolic2.svg"
   inkscape:version="1.3.2 (091e20ef0f, 2023-11-25)"
   xmlns:inkscape="http://www.inkscape.org/namespaces/inkscape"
   xmlns:sodipodi="http://sodipodi.sourceforge.net/DTD/sodipodi-0.dtd"
   xmlns="http://www.w3.org/2000/svg"
   xmlns:svg="http://www.w3.org/2000/svg">
  <defs
     id="defs1" />
  <sodipodi:namedview
     id="namedview1"
     pagecolor="#505050"
     bordercolor="#eeeeee"
     borderopacity="1"
     inkscape:showpageshadow="0"
     inkscape:pageopacity="0"
     inkscape:pagecheckerboard="0"
     inkscape:deskcolor="#505050"
     inkscape:zoom="48.8125"
     inkscape:cx="7.9897567"
     inkscape:cy="8"
     inkscape:window-width="1920"
     inkscape:window-height="978"
     inkscape:window-x="0"
     inkscape:window-y="30"
     inkscape:window-maximized="1"
     inkscape:current-layer="svg1" />
  <path
     d="m 7 1.007812 c -0.296875 -0.003906 -0.578125 0.125 -0.769531 0.351563 l -3.230469 3.640625 h -1 c -1.09375 0 -2 0.84375 -2 2 v 2 c 0 1.089844 0.910156 2 2 2 h 1 l 3.230469 3.640625 c 0.210937 0.253906 0.492187 0.363281 0.769531 0.359375 z m 2.957031 2.980469 c -0.199219 0.011719 -0.394531 0.074219 -0.5625 0.203125 c -0.441406 0.332032 -0.53125 0.960938 -0.195312 1.402344 c 1.074219 1.425781 1.074219 3.386719 0 4.8125 c -0.335938 0.441406 -0.246094 1.070312 0.195312 1.402344 c 0.441407 0.332031 1.066407 0.242187 1.398438 -0.195313 c 0.804687 -1.070312 1.207031 -2.339843 1.207031 -3.613281 s -0.402344 -2.542969 -1.207031 -3.613281 c -0.183594 -0.246094 -0.464844 -0.382813 -0.753907 -0.398438 c -0.027343 0 -0.054687 0 -0.085937 0 z m 0 0"
     fill="#2e3436"
     id="path1"
     style="fill:#e4e7e7;fill-opacity:1" />
</svg>
