<?xml version="1.0" encoding="UTF-8" standalone="no"?>
<svg
   height="16px"
   viewBox="0 0 16 16"
   width="16px"
   version="1.1"
   id="svg2"
   sodipodi:docname="network-offline-symbolic.svg"
   inkscape:version="1.3.2 (091e20ef0f, 2023-11-25)"
   xmlns:inkscape="http://www.inkscape.org/namespaces/inkscape"
   xmlns:sodipodi="http://sodipodi.sourceforge.net/DTD/sodipodi-0.dtd"
   xmlns="http://www.w3.org/2000/svg"
   xmlns:svg="http://www.w3.org/2000/svg">
  <defs
     id="defs2" />
  <sodipodi:namedview
     id="namedview2"
     pagecolor="#505050"
     bordercolor="#eeeeee"
     borderopacity="1"
     inkscape:showpageshadow="0"
     inkscape:pageopacity="0"
     inkscape:pagecheckerboard="0"
     inkscape:deskcolor="#505050"
     inkscape:zoom="48.8125"
     inkscape:cx="8"
     inkscape:cy="8"
     inkscape:window-width="1920"
     inkscape:window-height="978"
     inkscape:window-x="0"
     inkscape:window-y="30"
     inkscape:window-maximized="1"
     inkscape:current-layer="svg2" />
  <g
     id="g2">
    <path
       d="m 12,1 c -0.265625,0 -0.519531,0.105469 -0.707031,0.292969 -0.390625,0.390625 -0.390625,1.023437 0,1.414062 L 12.585938,4 H 5 C 4.449219,4 4,4.449219 4,5 4,5.550781 4.449219,6 5,6 h 7.585938 l -1.292969,1.292969 c -0.390625,0.390625 -0.390625,1.023437 0,1.414062 0.390625,0.390625 1.023437,0.390625 1.414062,0 l 3,-3 c 0.390625,-0.390625 0.390625,-1.023437 0,-1.414062 l -3,-3 C 12.519531,1.105469 12.265625,1 12,1 Z M 4,7 C 3.742188,7 3.488281,7.097656 3.292969,7.292969 l -3,3 c -0.3906252,0.390625 -0.3906252,1.023437 0,1.414062 l 3,3 C 3.480469,14.894531 3.734375,15 4,15 c 0.265625,0 0.519531,-0.105469 0.707031,-0.292969 0.390625,-0.390625 0.390625,-1.023437 0,-1.414062 L 3.414062,12 H 9 V 10 H 3.414062 L 4.707031,8.707031 c 0.390625,-0.390625 0.390625,-1.023437 0,-1.414062 C 4.511719,7.097656 4.257812,7 4,7 Z m 0,0"
       fill-opacity="0.34902"
       id="path1"
       style="fill:#e5e8e8;fill-opacity:0.34902003" />
    <path
       d="m 15,10 c 0.265625,0 0.519531,0.105469 0.707031,0.292969 0.390625,0.390625 0.390625,1.023437 0,1.414062 L 14.414062,13 l 1.292969,1.292969 c 0.390625,0.390625 0.390625,1.023437 0,1.414062 -0.390625,0.390625 -1.023437,0.390625 -1.414062,0 L 13,14.414062 11.707031,15.707031 c -0.390625,0.390625 -1.023437,0.390625 -1.414062,0 -0.390625,-0.390625 -0.390625,-1.023437 0,-1.414062 L 11.585938,13 10.292969,11.707031 c -0.390625,-0.390625 -0.390625,-1.023437 0,-1.414062 C 10.480469,10.105469 10.734375,10 11,10 c 0.265625,0 0.519531,0.105469 0.707031,0.292969 L 13,11.585938 14.292969,10.292969 C 14.480469,10.105469 14.734375,10 15,10 Z m 0,0"
       id="path2"
       style="fill:#e4e7e8;fill-opacity:1" />
  </g>
</svg>
