<?xml version="1.0" encoding="UTF-8" standalone="no"?>
<svg
   height="16px"
   viewBox="0 0 16 16"
   width="16px"
   version="1.1"
   id="svg2"
   sodipodi:docname="network-wired-connected-symbolic2.svg"
   inkscape:version="1.3.2 (091e20ef0f, 2023-11-25)"
   xmlns:inkscape="http://www.inkscape.org/namespaces/inkscape"
   xmlns:sodipodi="http://sodipodi.sourceforge.net/DTD/sodipodi-0.dtd"
   xmlns="http://www.w3.org/2000/svg"
   xmlns:svg="http://www.w3.org/2000/svg">
  <defs
     id="defs2" />
  <sodipodi:namedview
     id="namedview2"
     pagecolor="#505050"
     bordercolor="#eeeeee"
     borderopacity="1"
     inkscape:showpageshadow="0"
     inkscape:pageopacity="0"
     inkscape:pagecheckerboard="0"
     inkscape:deskcolor="#505050"
     inkscape:zoom="48.8125"
     inkscape:cx="8"
     inkscape:cy="8"
     inkscape:window-width="1920"
     inkscape:window-height="978"
     inkscape:window-x="0"
     inkscape:window-y="30"
     inkscape:window-maximized="1"
     inkscape:current-layer="svg2" />
  <path
     id="path2"
     style="fill:#e4e7e8;fill-opacity:1"
     d="M 6 0 C 5.4453126 0 5 0.44531255 5 1 L 5 4 C 5 4.5546874 5.4453126 5 6 5 L 7 5 L 7 7 L 0 7 L 0 9 L 2 9 L 2 11 L 1 11 C 0.44531255 11 0 11.445313 0 12 L 0 15 C 0 15.554687 0.44531255 16 1 16 L 5 16 C 5.5546874 16 6 15.554687 6 15 L 6 12 C 6 11.445313 5.5546874 11 5 11 L 4 11 L 4 9 L 12 9 L 12 11 L 11 11 C 10.445313 11 10 11.445313 10 12 L 10 15 C 10 15.554687 10.445313 16 11 16 L 15 16 C 15.554687 16 16 15.554687 16 15 L 16 12 C 16 11.445313 15.554687 11 15 11 L 14 11 L 14 9 L 16 9 L 16 7 L 9 7 L 9 5 L 10 5 C 10.554687 5 11 4.5546874 11 4 L 11 1 C 11 0.44531255 10.554687 0 10 0 L 6 0 z " />
</svg>
