<?xml version="1.0" encoding="UTF-8" standalone="no"?>
<svg
   height="16px"
   viewBox="0 0 16 16"
   width="16px"
   version="1.1"
   id="svg2"
   sodipodi:docname="network-wireless-acquiring-symbolic.svg"
   inkscape:version="1.3.2 (091e20ef0f, 2023-11-25)"
   xmlns:inkscape="http://www.inkscape.org/namespaces/inkscape"
   xmlns:sodipodi="http://sodipodi.sourceforge.net/DTD/sodipodi-0.dtd"
   xmlns="http://www.w3.org/2000/svg"
   xmlns:svg="http://www.w3.org/2000/svg">
  <defs
     id="defs2" />
  <sodipodi:namedview
     id="namedview2"
     pagecolor="#505050"
     bordercolor="#eeeeee"
     borderopacity="1"
     inkscape:showpageshadow="0"
     inkscape:pageopacity="0"
     inkscape:pagecheckerboard="0"
     inkscape:deskcolor="#505050"
     inkscape:zoom="50.6875"
     inkscape:cx="8"
     inkscape:cy="8"
     inkscape:window-width="1920"
     inkscape:window-height="1008"
     inkscape:window-x="0"
     inkscape:window-y="0"
     inkscape:window-maximized="1"
     inkscape:current-layer="svg2" />
  <g
     id="g2">
    <path
       d="m 8 1.992188 c -2.617188 0 -5.238281 0.933593 -7.195312 2.808593 l -0.496094 0.480469 c -0.3984378 0.378906 -0.410156 1.011719 -0.03125 1.410156 c 0.003906 0.007813 0.011718 0.011719 0.019531 0.015625 c 0.480469 -1.011719 1.503906 -1.707031 2.703125 -1.707031 h 0.9375 c 2.480469 -1.292969 5.644531 -1.292969 8.125 0 h 0.9375 c 1.199219 0 2.222656 0.695312 2.707031 1.707031 c 0.003907 -0.007812 0.011719 -0.011719 0.015625 -0.015625 c 0.378906 -0.398437 0.367188 -1.03125 -0.03125 -1.410156 l -0.496094 -0.480469 c -1.957031 -1.875 -4.578124 -2.808593 -7.195312 -2.808593 z m -1.730469 9.007812 c -0.441406 0.765625 -0.339843 1.757812 0.316407 2.414062 c 0.78125 0.78125 2.046874 0.78125 2.828124 0 c 0.65625 -0.65625 0.757813 -1.648437 0.316407 -2.414062 z m 0 0"
       fill="#2e3434"
       fill-opacity="0.34902"
       id="path1"
       style="fill:#e3e6e6;fill-opacity:0.34902003" />
    <path
       d="m 3 6 c -1.105469 0 -2 0.894531 -2 2 s 0.894531 2 2 2 s 2 -0.894531 2 -2 s -0.894531 -2 -2 -2 z m 5 0 c -1.105469 0 -2 0.894531 -2 2 s 0.894531 2 2 2 s 2 -0.894531 2 -2 s -0.894531 -2 -2 -2 z m 5 0 c -1.105469 0 -2 0.894531 -2 2 s 0.894531 2 2 2 s 2 -0.894531 2 -2 s -0.894531 -2 -2 -2 z m 0 0"
       fill="#2e3436"
       id="path2"
       style="fill:#e3e5e6;fill-opacity:1" />
  </g>
</svg>
