<?xml version="1.0" encoding="UTF-8" standalone="no"?>
<svg
   height="16px"
   viewBox="0 0 16 16"
   width="16px"
   version="1.1"
   id="svg2"
   sodipodi:docname="network-wired-acquiring-symbolic2.svg"
   inkscape:version="1.3.2 (091e20ef0f, 2023-11-25)"
   xmlns:inkscape="http://www.inkscape.org/namespaces/inkscape"
   xmlns:sodipodi="http://sodipodi.sourceforge.net/DTD/sodipodi-0.dtd"
   xmlns="http://www.w3.org/2000/svg"
   xmlns:svg="http://www.w3.org/2000/svg">
  <defs
     id="defs2" />
  <sodipodi:namedview
     id="namedview2"
     pagecolor="#505050"
     bordercolor="#eeeeee"
     borderopacity="1"
     inkscape:showpageshadow="0"
     inkscape:pageopacity="0"
     inkscape:pagecheckerboard="0"
     inkscape:deskcolor="#505050"
     inkscape:zoom="32"
     inkscape:cx="0.703125"
     inkscape:cy="7.921875"
     inkscape:window-width="1920"
     inkscape:window-height="978"
     inkscape:window-x="0"
     inkscape:window-y="30"
     inkscape:window-maximized="1"
     inkscape:current-layer="svg2" />
  <g
     id="g1">
    <path
       d="M 3,6 C 1.894531,6 1,6.894531 1,8 1,9.105469 1.894531,10 3,10 4.105469,10 5,9.105469 5,8 5,6.894531 4.105469,6 3,6 Z M 8,6 C 6.894531,6 6,6.894531 6,8 6,9.105469 6.894531,10 8,10 9.105469,10 10,9.105469 10,8 10,6.894531 9.105469,6 8,6 Z m 5,0 c -1.105469,0 -2,0.894531 -2,2 0,1.105469 0.894531,2 2,2 1.105469,0 2,-0.894531 2,-2 0,-1.105469 -0.894531,-2 -2,-2 z m 0,0"
       id="path1"
       style="fill:#e3e6e7;fill-opacity:1" />
    <path
       d="M 6,0 C 5.445312,0 5,0.445312 5,1 v 3 c 0,0.554688 0.445312,1 1,1 h 4 c 0.554688,0 1,-0.445312 1,-1 V 1 C 11,0.445312 10.554688,0 10,0 Z M 2,10.824219 V 11 H 1 c -0.554688,0 -1,0.445312 -1,1 v 3 c 0,0.554688 0.445312,1 1,1 h 4 c 0.554688,0 1,-0.445312 1,-1 V 12 C 6,11.445312 5.554688,11 5,11 H 3 C 2.648438,11 2.3125,10.9375 2,10.824219 Z m 12,0 C 13.6875,10.9375 13.351562,11 13,11 h -2 c -0.554688,0 -1,0.445312 -1,1 v 3 c 0,0.554688 0.445312,1 1,1 h 4 c 0.554688,0 1,-0.445312 1,-1 v -3 c 0,-0.554688 -0.445312,-1 -1,-1 h -1 z m 0,0"
       fill-opacity="0.34902"
       id="path2"
       style="fill:#e3e6e7;fill-opacity:1" />
  </g>
</svg>
